<svg width="27" height="27" viewBox="0 0 27 27" fill="none" xmlns="http://www.w3.org/2000/svg">
<g clip-path="url(#clip0_401_18)">
<path d="M5.5771 20.2499H21.193V12.4098C21.193 8.04145 17.6973 4.49995 13.3851 4.49995C9.07283 4.49995 5.5771 8.04145 5.5771 12.4098V20.2499ZM13.3851 2.24995C18.9287 2.24995 23.4239 6.79833 23.4239 12.4098V22.4999H3.34625V12.4098C3.34625 6.79833 7.84141 2.24995 13.3851 2.24995ZM10.5965 23.6249H16.1736C16.1736 24.3709 15.8798 25.0862 15.3569 25.6137C14.8339 26.1411 14.1246 26.4374 13.3851 26.4374C12.6455 26.4374 11.9362 26.1411 11.4133 25.6137C10.8903 25.0862 10.5965 24.3709 10.5965 23.6249V23.6249Z" fill="white"/>
</g>
<defs>
<clipPath id="clip0_401_18">
<rect width="26.7702" height="27" fill="white"/>
</clipPath>
</defs>
</svg>
