<svg width="21" height="25" viewBox="0 0 21 25" fill="none" xmlns="http://www.w3.org/2000/svg">
<path d="M2.5771 18.2499H18.193V10.4098C18.193 6.04145 14.6973 2.49995 10.3851 2.49995C6.07283 2.49995 2.5771 6.04145 2.5771 10.4098V18.2499ZM10.3851 0.24995C15.9287 0.24995 20.4239 4.79833 20.4239 10.4098V20.4999H0.346252V10.4098C0.346252 4.79833 4.84141 0.24995 10.3851 0.24995ZM7.5965 21.6249H13.1736C13.1736 22.3709 12.8798 23.0862 12.3569 23.6137C11.8339 24.1411 11.1246 24.4374 10.3851 24.4374C9.64549 24.4374 8.93621 24.1411 8.41325 23.6137C7.8903 23.0862 7.5965 22.3709 7.5965 21.6249Z" fill="white"/>
</svg>
