<svg width="15" height="17" viewBox="0 0 15 17" fill="none" xmlns="http://www.w3.org/2000/svg">
<path d="M2.90778 5.00996C3.92419 4.59867 4.46792 3.46912 4.05502 2.44871C3.64332 1.43231 0.879437 -0.000183105 0.879437 -0.000183105C0.879437 -0.000183105 -0.112588 2.95295 0.298841 3.96908C0.711882 4.98963 1.88843 5.42262 2.90778 5.00982V5.00996Z" fill="white"/>
<path d="M7.16469 11.0288C7.16469 11.0288 6.14442 13.9035 6.55571 14.9195C6.96848 15.9389 8.14221 16.3742 9.1617 15.9614C10.181 15.5488 10.7213 14.4196 10.3087 13.4003C9.89723 12.3839 7.16469 11.0287 7.16469 11.0287V11.0288Z" fill="white"/>
<path d="M0.78 9.87955C0.78 9.87955 -0.339356 12.9759 0.103785 14.0706C0.548024 15.168 1.83747 15.6473 2.93502 15.2028C4.02962 14.7597 4.54271 13.5511 4.09833 12.4534C3.65488 11.359 0.78 9.87962 0.78 9.87962V9.87955Z" fill="white"/>
<path d="M7.14066 8.9415C7.76558 8.68851 8.01388 7.95177 7.79209 7.40399C7.53789 6.77601 5.93666 5.96759 5.93666 5.96759C5.93666 5.96759 5.34805 7.66261 5.60225 8.29086C5.82403 8.83837 6.5139 9.19528 7.14067 8.9415H7.14066Z" fill="white"/>
<path d="M13.2747 8.68125C13.0205 8.05327 11.4193 7.24484 11.4193 7.24484C11.4193 7.24484 10.8307 8.93986 11.0849 9.56812C11.3067 10.1158 11.9967 10.4727 12.6233 10.219C13.2483 9.96574 13.4968 9.229 13.2747 8.68121L13.2747 8.68125Z" fill="white"/>
<path d="M12.0525 2.63634C11.641 1.62008 8.877 0.187592 8.877 0.187592C8.877 0.187592 7.88497 3.14071 8.2964 4.15684C8.70958 5.17738 9.88614 5.6101 10.9054 5.19747C11.9215 4.78632 12.4655 3.65702 12.0525 2.63624V2.63634Z" fill="white"/>
<path d="M14.8018 14.7413C14.5476 14.1133 12.9464 13.3049 12.9464 13.3049C12.9464 13.3049 12.3578 14.9999 12.612 15.6282C12.8338 16.1758 13.5236 16.5327 14.1504 16.2788C14.7752 16.0258 15.0236 15.2891 14.8018 14.7413H14.8018Z" fill="white"/>
</svg>
