<svg width="9" height="18" viewBox="0 0 9 18" fill="none" xmlns="http://www.w3.org/2000/svg">
<path d="M4.52851 13.1645C4.27779 12.946 4.07261 12.4951 4.07261 12.1624V0.604682C4.07261 0.272138 3.8006 0.00012207 3.46805 0.00012207H2.69261C2.36007 0.00012207 2.08805 0.272131 2.08805 0.604682L2.08792 12.1621C2.08792 12.4949 1.87457 12.9358 1.61395 13.1423C1.61395 13.1423 0.499939 14.0245 0.499939 14.8586C0.499939 16.1463 1.63312 17.1903 3.03091 17.1903C4.42847 17.1903 5.56151 16.1462 5.56151 14.8586C5.56151 14.0645 4.52851 13.1643 4.52851 13.1643L4.52851 13.1645Z" fill="white"/>
<path d="M3.82157 3.35839C3.82157 3.69094 3.54955 3.96295 3.21699 3.96295H2.95221C2.61966 3.96295 2.34764 3.69094 2.34764 3.35839L2.3475 0.867194C2.3475 0.53465 2.61952 0.262634 2.95208 0.262634H3.21686C3.54941 0.262634 3.82143 0.534643 3.82143 0.867194L3.82157 3.35839Z" fill="white"/>
<path d="M7.09206 10.6013C7.09206 11.1723 6.62961 11.6349 6.05827 11.6349C5.48694 11.6349 5.02463 11.1725 5.02463 10.6013L6.04435 8.7406L7.09206 10.6013Z" fill="white"/>
<path d="M8.20463 12.2926C8.20128 12.624 7.93048 12.8899 7.59873 12.8867C7.26779 12.8837 7.00168 12.6128 7.00504 12.2812L7.60706 11.2071L8.20463 12.2926Z" fill="white"/>
<path d="M7.98691 9.64092C7.98517 9.83847 7.82351 9.99705 7.62611 9.99503C7.42883 9.99316 7.26983 9.83164 7.27199 9.63424L7.63122 8.99377L7.98691 9.64092Z" fill="white"/>
<path d="M4.50692 15.3375C4.48723 15.3372 4.50437 15.3371 4.54496 15.3371C4.585 15.3371 4.49781 15.5814 4.35076 15.8796L4.30281 15.9767C4.15603 16.275 3.81732 16.5193 3.55041 16.5193H3.06464H2.57929C2.31237 16.5193 1.97367 16.275 1.82662 15.9767L1.77867 15.8796C1.63161 15.5814 1.54483 15.3371 1.58554 15.3371C1.62653 15.3371 1.932 15.3371 2.26458 15.3374L3.93841 15.3376C4.27069 15.3376 4.52676 15.3375 4.50694 15.3375H4.50692Z" fill="white"/>
<path d="M2.84474 15.0755C2.45943 15.0533 2.23911 14.929 2.04197 14.5552C1.84482 14.181 1.86853 14.0372 2.06741 13.5997L2.0796 13.6011C2.5438 13.6842 2.67463 13.7483 2.86951 14.1197C3.06733 14.4932 3.04469 14.7457 2.8446 15.0753" fill="white"/>
<path d="M3.2963 14.0099C3.12459 14.0002 3.02642 13.9447 2.93868 13.7783C2.85096 13.6119 2.8614 13.5476 2.9502 13.3529L2.95529 13.3533C3.16208 13.3904 3.22048 13.4192 3.30687 13.5843C3.39473 13.7505 3.38468 13.8632 3.29562 14.01" fill="white"/>
<path d="M3.51776 15.0755C3.34245 14.8603 3.30147 14.6826 3.40446 14.3961C3.50798 14.1098 3.59584 14.0529 3.92477 13.946L3.92946 13.9535C4.11106 14.2402 4.13985 14.341 4.03807 14.6246C3.93522 14.9109 3.78977 15.021 3.51776 15.0747" fill="white"/>
</svg>
