<svg width="19" height="18" viewBox="0 0 19 18" fill="none" xmlns="http://www.w3.org/2000/svg">
<path d="M1.43281 7.37572H9.11006C10.0389 7.38242 10.9375 7.04585 11.6334 6.4306C12.3293 5.81535 12.7736 4.96475 12.8808 4.04212C12.9842 3.00591 12.6408 1.97466 11.9366 1.20739C11.2375 0.439832 10.2479 0.0016265 9.20973 -0.00012207H7.13812C6.8049 -0.00012207 6.49701 0.177735 6.33038 0.466232C6.16377 0.754849 6.16377 1.11043 6.33038 1.39904C6.49699 1.68753 6.8049 1.8654 7.13812 1.8654H9.20973C9.73471 1.86607 10.234 2.09307 10.58 2.48802C10.9258 2.88299 11.0849 3.40784 11.0163 3.92843C10.9476 4.37507 10.7191 4.78156 10.3732 5.07231C10.0274 5.3632 9.58769 5.51843 9.13594 5.50945H1.43264C1.09942 5.50945 0.791531 5.68717 0.624903 5.9758C0.458274 6.26443 0.458295 6.61986 0.624903 6.90848C0.79151 7.19709 1.09942 7.37483 1.43264 7.37483L1.43281 7.37572Z" fill="white"/>
<path d="M18.4834 13.5293C18.3762 12.6067 17.9321 11.7562 17.2363 11.1411C16.5404 10.5258 15.642 10.1891 14.7132 10.1957H8.30006C7.96685 10.1957 7.65896 10.3734 7.49233 10.6621C7.32572 10.9507 7.32572 11.3063 7.49233 11.5947C7.65893 11.8834 7.96684 12.0611 8.30006 12.0611H14.7386C15.1903 12.0521 15.63 12.2075 15.9758 12.4982C16.3218 12.7891 16.5502 13.1956 16.6189 13.6421C16.6875 14.1627 16.5285 14.6875 16.1826 15.0825C15.8366 15.4776 15.3374 15.7045 14.8124 15.7053H12.74C12.4067 15.7053 12.0989 15.883 11.9322 16.1716C11.7656 16.4601 11.7656 16.8157 11.9322 17.1043C12.0988 17.3929 12.4067 17.5707 12.74 17.5707H14.8114C15.8501 17.5697 16.8405 17.1318 17.54 16.3641C18.2439 15.5967 18.587 14.5655 18.4832 13.5294L18.4834 13.5293Z" fill="white"/>
<path d="M6.24479 11.1293C6.24466 10.8818 6.14635 10.6446 5.97157 10.4696C5.79666 10.2945 5.55946 10.196 5.31212 10.1957H1.43269C1.09948 10.1957 0.791585 10.3734 0.624956 10.6621C0.458348 10.9507 0.458348 11.3063 0.624956 11.5947C0.791564 11.8834 1.09947 12.0611 1.43269 12.0611H5.31212C5.55922 12.0608 5.79613 11.9625 5.97092 11.7879C6.14571 11.6132 6.24427 11.3764 6.24481 11.1294L6.24479 11.1293Z" fill="white"/>
<path d="M13.2052 7.97815C13.2848 7.97815 13.3611 7.94654 13.4173 7.89029L14.0495 7.25813H14.0494C14.9182 7.43036 15.8143 7.14134 16.4188 6.49407C17.0234 5.84679 17.2505 4.93314 17.0194 4.07812C16.9918 3.9742 16.9106 3.89303 16.8067 3.86544C15.9517 3.63442 15.038 3.86156 14.3907 4.46599C13.7435 5.07056 13.4544 5.96668 13.6267 6.83545L12.9931 7.46573C12.9074 7.55157 12.8817 7.68055 12.9281 7.79265C12.9746 7.90474 13.0839 7.97774 13.2052 7.97787L13.2052 7.97815Z" fill="white"/>
<path d="M6.73133 13.3243L6.09917 12.6921C5.98145 12.5784 5.79435 12.5802 5.67862 12.6959C5.56289 12.8116 5.56129 12.9987 5.675 13.1164L6.30676 13.7486V13.7485C6.14403 14.5851 6.40573 15.4479 7.00574 16.0531C7.62972 16.6706 9.02447 17.1949 9.69973 16.5031H9.69987C9.93063 15.6484 9.70362 14.7352 9.09959 14.088C8.49543 13.4407 7.59985 13.1516 6.73132 13.3231L6.73133 13.3243Z" fill="white"/>
</svg>
